<svg xmlns="http://www.w3.org/2000/svg" width="50" height="50" viewBox="0 0 24 24" fill="none" class="injected-svg" data-src="https://cdn.hugeicons.com/icons/home-11-stroke-standard.svg" color="#000"><path d="M9.002 16.999 9 21.001A1 1 0 0 1 8 22H5a2 2 0 0 1-2-2v-9.935a2 2 0 0 1 .762-1.57l7-5.519a2 2 0 0 1 2.476 0l7 5.518A2 2 0 0 1 21 10.065V20a2 2 0 0 1-2 2h-3a1 1 0 0 1-1-1v-4a2 2 0 0 0-2-2h-1.998a2 2 0 0 0-2 1.999" stroke="#000" stroke-width="2" stroke-linecap="round" stroke-linejoin="round"/></svg>