<svg xmlns="http://www.w3.org/2000/svg" width="24" height="24" viewBox="0 0 24 24" fill="none" class="injected-svg" data-src="https://cdn.hugeicons.com/icons/bar-code-02-solid-rounded.svg" color="#000"><path d="M10.08 3.25h.09c.433 0 .83 0 1.152.043.356.048.731.16 1.04.47s.422.684.47 1.04c.043.323.043.72.043 1.152v12.09c0 .433 0 .83-.043 1.152-.048.356-.16.731-.47 1.04s-.684.422-1.04.47c-.323.043-.72.043-1.152.043h-.09c-.433 0-.83 0-1.152-.043-.356-.048-.731-.16-1.04-.47s-.422-.684-.47-1.04c-.043-.323-.043-.72-.043-1.152V5.955c0-.433 0-.83.043-1.152.048-.356.16-.731.47-1.04s.684-.422 1.04-.47c.323-.043.72-.043 1.152-.043" fill="#000"/><path fill-rule="evenodd" clip-rule="evenodd" d="M2.125 3.25c.552 0 1 .435 1 .972v15.556c0 .537-.448.972-1 .972s-1-.435-1-.972V4.222c0-.537.448-.972 1-.972m3 0c.552 0 1 .435 1 .972v15.556c0 .537-.448.972-1 .972s-1-.435-1-.972V4.222c0-.537.448-.972 1-.972m10 0c.552 0 1 .435 1 .972v15.556c0 .537-.448.972-1 .972s-1-.435-1-.972V4.222c0-.537.448-.972 1-.972" fill="#000"/><path d="M20.08 3.25h.09c.433 0 .83 0 1.152.043.356.048.731.16 1.04.47s.422.684.47 1.04c.043.323.043.72.043 1.152v12.09c0 .433 0 .83-.043 1.152-.048.356-.16.731-.47 1.04s-.684.422-1.04.47c-.323.043-.72.043-1.152.043h-.09c-.433 0-.83 0-1.152-.043-.356-.048-.731-.16-1.04-.47s-.422-.684-.47-1.04c-.043-.323-.043-.72-.043-1.152V5.955c0-.433 0-.83.043-1.152.048-.356.16-.731.47-1.04s.684-.422 1.04-.47c.323-.043.72-.043 1.152-.043" fill="#000"/></svg>